<?xml version="1.0" encoding="UTF-8"?>
<svg id="Layer_1" data-name="Layer 1" xmlns="http://www.w3.org/2000/svg" xmlns:xlink="http://www.w3.org/1999/xlink" viewBox="0 0 1080 443.52">
  <defs>
    <style>
      .cls-1 {
        fill: #fff;
      }

      .cls-2 {
        fill: #00cbbe;
      }

      .cls-3 {
        fill: url(#linear-gradient);
      }
    </style>
    <linearGradient id="linear-gradient" x1="213.07" y1="255.66" x2="213.07" y2="86.84" gradientUnits="userSpaceOnUse">
      <stop offset="0" stop-color="#fad02c"/>
      <stop offset=".2" stop-color="#fac827"/>
      <stop offset=".5" stop-color="#fbb21b"/>
      <stop offset=".88" stop-color="#fe8f07"/>
      <stop offset="1" stop-color="#ff8200"/>
    </linearGradient>
  </defs>
  <g>
    <path class="cls-1" d="M452.98,353.03c-.74-.74-1.11-1.64-1.11-2.7v-214.61c0-1.06.37-1.95,1.11-2.7.74-.74,1.64-1.11,2.7-1.11h29.21c1.06,0,1.95.37,2.7,1.11.74.74,1.11,1.64,1.11,2.7v113.66c0,.63.21,1.01.63,1.11.42.11.84-.05,1.27-.48l42.86-55.88c1.27-1.48,2.86-2.22,4.76-2.22h32.06c2.11,0,3.17.74,3.17,2.22,0,.63-.32,1.48-.95,2.54l-36.83,49.21c-.43.63-.43,1.38,0,2.22l42.54,101.59c.21.43.32,1.06.32,1.9,0,1.7-1.06,2.54-3.17,2.54h-30.48c-2.33,0-3.81-1.06-4.44-3.17l-28.89-75.88c-.21-.63-.48-.95-.79-.95s-.69.21-1.11.63l-20.32,25.72c-.43.85-.63,1.48-.63,1.9v47.94c0,1.06-.37,1.96-1.11,2.7-.74.74-1.64,1.11-2.7,1.11h-29.21c-1.06,0-1.96-.37-2.7-1.11Z"/>
    <path class="cls-1" d="M691.56,196.2c9.31,4.55,16.56,10.85,21.75,18.89,5.18,8.05,7.78,17.25,7.78,27.62v107.62c0,1.06-.37,1.96-1.11,2.7s-1.64,1.11-2.7,1.11h-29.21c-1.06,0-1.96-.37-2.7-1.11-.74-.74-1.11-1.64-1.11-2.7v-7.94c0-.64-.21-1.06-.64-1.27-.43-.21-.85-.1-1.27.32-8.89,10.16-21.7,15.24-38.41,15.24-13.97,0-25.82-3.75-35.56-11.27-9.74-7.51-14.6-19.73-14.6-36.67,0-17.78,5.66-31,16.98-39.68,11.32-8.68,26.93-13.02,46.83-13.02h25.08c1.06,0,1.59-.53,1.59-1.59v-7.94c0-7.83-2.17-14.02-6.51-18.57-4.34-4.55-10.32-6.83-17.94-6.83-6.14,0-11.17,1.43-15.08,4.29-3.92,2.86-6.4,6.72-7.46,11.59-.64,2.33-2.12,3.49-4.44,3.49l-30.79-1.9c-1.06,0-1.96-.37-2.7-1.11-.74-.74-1.01-1.53-.79-2.38,1.27-13.54,7.56-24.55,18.89-33.02,11.32-8.46,25.34-12.7,42.06-12.7,12.06,0,22.75,2.28,32.06,6.83ZM675.05,319.69c6.14-4.76,9.21-11.06,9.21-18.89v-16.51c0-1.06-.53-1.59-1.59-1.59h-21.27c-9.32,0-16.67,2.01-22.06,6.03-5.4,4.02-8.1,9.84-8.1,17.46,0,6.78,2.06,11.91,6.19,15.4,4.13,3.49,9.47,5.24,16.03,5.24,8.25,0,15.45-2.38,21.59-7.14Z"/>
    <path class="cls-1" d="M745.06,353.03c-.74-.74-1.11-1.64-1.11-2.7v-26.99c0-1.48.53-3.07,1.59-4.76l66.35-91.43c.42-.42.48-.84.16-1.27-.32-.42-.79-.63-1.43-.63h-61.27c-1.06,0-1.96-.37-2.7-1.11-.74-.74-1.11-1.64-1.11-2.7v-25.72c0-1.06.37-1.95,1.11-2.7s1.64-1.11,2.7-1.11h103.5c1.06,0,1.95.37,2.7,1.11.74.74,1.11,1.64,1.11,2.7v26.99c0,1.7-.53,3.28-1.59,4.76l-67.94,91.43c-.43.43-.53.85-.32,1.27.21.43.64.63,1.27.63h66.03c1.06,0,1.95.37,2.7,1.11.74.74,1.11,1.64,1.11,2.7v25.71c0,1.06-.37,1.96-1.11,2.7-.74.74-1.64,1.11-2.7,1.11h-106.35c-1.06,0-1.96-.37-2.7-1.11Z"/>
    <path class="cls-1" d="M974.11,196.2c9.31,4.55,16.56,10.85,21.75,18.89,5.18,8.05,7.78,17.25,7.78,27.62v107.62c0,1.06-.37,1.96-1.11,2.7s-1.64,1.11-2.7,1.11h-29.21c-1.06,0-1.96-.37-2.7-1.11-.74-.74-1.11-1.64-1.11-2.7v-7.94c0-.64-.21-1.06-.64-1.27-.43-.21-.85-.1-1.27.32-8.89,10.16-21.7,15.24-38.41,15.24-13.97,0-25.82-3.75-35.56-11.27-9.74-7.51-14.6-19.73-14.6-36.67,0-17.78,5.66-31,16.98-39.68,11.32-8.68,26.93-13.02,46.83-13.02h25.08c1.06,0,1.59-.53,1.59-1.59v-7.94c0-7.83-2.17-14.02-6.51-18.57-4.34-4.55-10.32-6.83-17.94-6.83-6.14,0-11.17,1.43-15.08,4.29-3.92,2.86-6.4,6.72-7.46,11.59-.64,2.33-2.12,3.49-4.44,3.49l-30.79-1.9c-1.06,0-1.96-.37-2.7-1.11-.74-.74-1.01-1.53-.79-2.38,1.27-13.54,7.56-24.55,18.89-33.02,11.32-8.46,25.34-12.7,42.06-12.7,12.06,0,22.75,2.28,32.06,6.83ZM957.6,319.69c6.14-4.76,9.21-11.06,9.21-18.89v-16.51c0-1.06-.53-1.59-1.59-1.59h-21.27c-9.32,0-16.67,2.01-22.06,6.03-5.4,4.02-8.1,9.84-8.1,17.46,0,6.78,2.06,11.91,6.19,15.4,4.13,3.49,9.47,5.24,16.03,5.24,8.25,0,15.45-2.38,21.59-7.14Z"/>
  </g>
  <g>
    <path class="cls-3" d="M349.77,227.02c-.09,4.86-1.47,9.7-3.94,13.88-3.38,5.7-7.39,9.73-13.67,12.06-5.79,2.15-12.06,2.78-18.2,2.69-35.27-.52-66.45-21.46-96.45-40.03-1.34-.83-2.76-1.68-4.34-1.74-1.94-.08-3.7,1.05-5.31,2.13-28.67,19.15-59.78,37.8-94.22,39.29-7.78.34-15.87-.3-22.73-4-9.28-5-15.18-15.67-14.49-26.18.69-10.52,7.94-20.32,17.8-24.05,7.04-2.67,14.83-2.36,22.31-1.53,27.53,3.06,53.86,12.67,79.87,22.21-22.16-13.71-44.33-27.41-66.49-41.12-7.73-4.78-15.76-9.86-20.35-17.71-5.83-9.97-4.6-23.59,2.93-32.35,7.53-8.76,20.81-12.02,31.54-7.74,7.76,3.09,13.7,9.45,18.93,15.96,18.49,23.02,31.21,50.03,43.75,76.75-9.75-28.62-19.57-57.55-22.63-87.63-.82-8.09-1.1-16.55,2.06-24.05,4.18-9.91,14.55-16.88,25.31-17,10.76-.12,21.28,6.62,25.67,16.44,3.31,7.41,3.23,15.86,2.55,23.95-2.55,30.27-12.56,59.35-22.5,88.06,12.54-26.33,25.24-52.93,43.42-75.74,5.47-6.86,11.72-13.57,19.89-16.78,9.88-3.89,21.91-1.75,29.7,5.45,7.8,7.2,10.87,19.16,7.32,29.16-4.08,11.5-15.22,18.7-25.64,25.04-21.4,13.02-42.8,26.05-64.2,39.07,26.73-9.66,53.8-19.39,82.08-22.19,7.82-.78,15.99-.96,23.23,2.09,8.3,3.49,14.63,11.31,16.33,20.15.35,1.81.5,3.64.47,5.48Z"/>
    <path class="cls-2" d="M323.52,303.17c-20.96,27.84-48.96,46.06-82.35,53.51l-.11-33.16c0-2.97-2.42-5.37-5.39-5.37l-45.08.02c-2.97,0-5.38,2.4-5.39,5.37l-.1,33.07c-32.69-6.85-62.62-26.15-82.35-53.1,35.75-20.84,71.49-41.68,107.24-62.52,4.08-2.38,7.66.78,11.11,2.78,4.78,2.78,9.57,5.55,14.35,8.32,9.79,5.67,19.57,11.35,29.36,17.02,19.57,11.35,39.15,22.69,58.72,34.04,0,0-.01.02-.02.02Z"/>
  </g>
</svg>